:SAMPLES-PER-SECOND 30
:FULLY-SPECIFIED
:DEGREES
476
root  -23.5122 39.6783 -16.6608 166.937 -76.1406 -172.477
RightUpLeg  -2.43771 -18.102 5.96992
RightLeg  21.8164 -5.35846 -0.498911
RightFoot  -14.5391 -0.35969 -9.37166
RightToes  0.000482159 0.542163 -0.142577
Spine  14.8032 0.38295 6.08862
Spine1  14.738 1.24228 -0.685152
HEad  23.9822 2.06669 -3.16233
LeftShoulder1  8.03769 -13.4032 -41.2183
LeftArm  -11.003 8.08733 -26.0464
LeftForeArm  19.0851 -71.4585 -34.8881
LeftHand  -0.25398 0.0180481 5.50724
RightShoulder  5.35223 9.73757 34.4671
RightArm  -9.46775 -10.6891 23.6359
RightForeArm  -9.28268 75.2666 56.7714
RightHand  1.00858 -13.1597 -15.7778
LeftUpLeg  -23.2328 9.86812 2.37361
LeftLeg  14.4955 1.87075 -0.38856
LeftFoot  3.54497 0.232564 -1.92896
LeftToes  1.06247e-005 4.65855e-005 -8.18504e-006
477
root  -24.7178 39.5806 -16.9162 165.609 -75.5042 -170.79
RightUpLeg  -0.913631 -19.0339 6.23602
RightLeg  22.3163 -3.89742 -1.0526
RightFoot  -16.2821 -0.473778 -8.42973
RightToes  0.000482159 0.542163 -0.142577
Spine  15.0841 0.0709307 6.50389
Spine1  15.2569 1.24633 -1.53348
HEad  23.4674 2.86834 -3.09876
LeftShoulder1  8.07322 -13.4734 -41.2302
LeftArm  -11.0681 8.00503 -26.1113
LeftForeArm  17.8522 -70.9115 -33.6886
LeftHand  -0.25398 0.0180481 5.50724
RightShoulder  5.44846 9.92844 34.607
RightArm  -9.14183 -10.2552 23.3879
RightForeArm  -11.3091 74.9001 54.6282
RightHand  0.995537 -13.0662 -15.7729
LeftUpLeg  -20.4362 7.90754 4.21566
LeftLeg  1.56122 13.0104 -4.92547
LeftFoot  4.96404 0.597985 -4.38326
LeftToes  1.06247e-005 4.65855e-005 -8.18504e-006
478
root  -26.0183 39.2809 -17.1777 162.014 -75.0688 -167.064
RightUpLeg  0.347003 -19.538 6.82905
RightLeg  24.4261 -3.27663 -1.81173
RightFoot  -18.6234 -0.608073 -7.54756
RightToes  0.000482159 0.542163 -0.142577
Spine  15.3055 -0.30215 7.29807
Spine1  15.5786 0.907897 -1.66639
HEad  23.0497 3.61338 -3.00568
LeftShoulder1  8.10581 -13.5419 -41.2301
LeftArm  -11.1456 7.69074 -26.1567
LeftForeArm  16.1669 -70.0847 -32.0177
LeftHand  -0.25398 0.0180481 5.50724
RightShoulder  5.54704 10.1125 34.7801
RightArm  -8.7645 -9.69697 23.2033
RightForeArm  -13.9337 74.3504 51.7666
RightHand  1.00922 -13.3613 -15.4141
LeftUpLeg  -18.5482 6.54957 5.42275
LeftLeg  -5.28102 24.2603 -9.48752
LeftFoot  5.51387 1.09931 -7.63026
LeftToes  1.06247e-005 4.65855e-005 -8.18504e-006
479
root  -27.3091 38.9406 -17.5144 159.298 -74.91 -164.182
RightUpLeg  1.42937 -18.6642 7.35772
RightLeg  26.9181 -4.3322 -2.64572
RightFoot  -21.1519 -0.696747 -6.50077
RightToes  0.000482159 0.542163 -0.142577
Spine  15.8239 -0.461678 6.82328
Spine1  15.8886 0.51754 -1.023
HEad  22.6112 4.13876 -2.75024
LeftShoulder1  8.11946 -13.6111 -41.1246
LeftArm  -11.1018 7.16804 -26.3244
LeftForeArm  14.4462 -69.0248 -30.0626
LeftHand  -0.25398 0.0180481 5.50724
RightShoulder  5.60555 10.1986 34.9484
RightArm  -8.22493 -9.19722 22.9719
RightForeArm  -16.9122 73.7043 48.8669
RightHand  0.994642 -13.3254 -15.2783
LeftUpLeg  -17.7959 7.20648 4.94209
LeftLeg  -5.71617 29.6692 -11.0786
LeftFoot  6.25886 1.1927 -7.98125
LeftToes  1.06247e-005 4.65855e-005 -8.18504e-006
480
root  -28.5114 38.6701 -17.8703 159.702 -74.5754 -164.293
RightUpLeg  1.35692 -17.7274 7.12295
RightLeg  30.9194 -4.62106 -3.22989
RightFoot  -22.4742 -0.484677 -3.42747
RightToes  0.000482159 0.542163 -0.142577
Spine  17.1115 -0.286738 4.97878
Spine1  16.0338 0.46662 -0.401829
HEad  22.0393 4.59083 -2.29403
LeftShoulder1  8.10196 -13.6641 -40.8912
LeftArm  -10.9753 6.48034 -26.579
LeftForeArm  12.658 -67.7687 -28.022
LeftHand  -0.25398 0.0180481 5.50724
RightShoulder  5.65426 10.232 35.1991
RightArm  -7.54331 -8.71382 22.7148
RightForeArm  -19.8721 73.0114 46.1721
RightHand  0.911414 -12.5258 -15.5941
LeftUpLeg  -17.5505 7.8271 3.94204
LeftLeg  -3.86541 30.3091 -11.0041
LeftFoot  8.94138 0.0807215 -0.87876
LeftToes  1.06247e-005 4.65855e-005 -8.18504e-006
481
root  -29.5891 38.4769 -18.129 162.467 -74.0549 -166.478
RightUpLeg  -1.75815 -17.3991 5.76955
RightLeg  39.0418 -2.89601 -2.74475
RightFoot  -19.7053 -0.0263129 1.8534
RightToes  0.000482159 0.542163 -0.142577
Spine  19.331 -0.0675778 2.95857
Spine1  15.508 0.500075 -0.215239
HEad  20.9357 5.22002 -1.93871
LeftShoulder1  8.0964 -13.7131 -40.7343
LeftArm  -11.0271 5.36351 -26.6283
LeftForeArm  10.5337 -66.2202 -25.87
LeftHand  -0.25398 0.0180481 5.50724
RightShoulder  5.7636 10.3876 35.5185
RightArm  -7.08544 -7.88341 22.6455
RightForeArm  -22.5458 72.1892 43.3543
RightHand  0.802544 -11.6133 -15.7942
LeftUpLeg  -19.8661 11.0144 1.60054
LeftLeg  1.68275 26.2841 -8.46674
LeftFoot  11.209 -2.16455 10.5269
LeftToes  1.06247e-005 4.65855e-005 -8.18504e-006
482
root  -30.4869 38.317 -18.2712 166.139 -73.9597 -169.289
RightUpLeg  -8.45198 -17.9419 3.58435
RightLeg  50.8644 -0.379148 -0.838773
RightFoot  -10.694 -0.103698 6.22119
RightToes  0.000482159 0.542163 -0.142577
Spine  22.5742 -0.0908512 1.32347
Spine1  14.4285 0.266125 -0.328341
HEad  18.7621 5.83955 -1.96161
LeftShoulder1  8.19738 -13.9359 -40.7132
LeftArm  -11.2593 3.23093 -26.433
LeftForeArm  7.92452 -64.0271 -23.3098
LeftHand  -0.25398 0.0180481 5.50724
RightShoulder  5.91367 10.6848 35.7031
RightArm  -7.32463 -6.42994 22.8339
RightForeArm  -24.7642 71.1703 40.2993
RightHand  0.720684 -11.1614 -15.3934
LeftUpLeg  -24.4722 19.6853 -3.9732
LeftLeg  8.92331 16.8647 -4.12945
LeftFoot  11.5168 -3.75495 18.1128
LeftToes  1.06247e-005 4.65855e-005 -8.18504e-006
483
root  -31.1795 38.1788 -18.3676 170.569 -74.2985 -172.749
RightUpLeg  -16.6641 -18.8868 1.24801
RightLeg  61.7572 0.981584 1.38182
RightFoot  0.887089 -0.735873 7.11904
RightToes  0.000482159 0.542163 -0.142577
Spine  26.4192 -0.152951 0.0261131
Spine1  13.6784 0.0835886 -0.831562
HEad  15.4777 5.95402 -2.23069
LeftShoulder1  8.40702 -14.5087 -40.4029
LeftArm  -11.2931 -0.362477 -26.5726
LeftForeArm  4.91492 -60.7549 -20.2128
LeftHand  -0.25398 0.0180481 5.50724
RightShoulder  6.01313 10.961 35.5963
RightArm  -8.43623 -4.31833 23.082
RightForeArm  -26.8256 69.8862 37.0252
RightHand  0.64848 -10.9195 -14.5814
LeftUpLeg  -29.6079 28.7265 -11.0378
LeftLeg  14.3367 7.14308 -0.922403
LeftFoot  9.97613 -3.7367 19.304
LeftToes  1.06247e-005 4.65855e-005 -8.18504e-006
484
root  -31.7447 38.1327 -18.4662 173.762 -74.4871 -174.931
RightUpLeg  -23.8567 -19.8593 -0.166744
RightLeg  68.013 0.92776 1.75716
RightFoot  7.05286 -0.911069 5.89698
RightToes  0.000482159 0.542163 -0.142577
Spine  30.1096 -0.177603 -0.306881
Spine1  13.6517 0.303656 -1.7071
HEad  11.8048 5.53786 -2.54014
LeftShoulder1  8.55955 -15.2561 -39.4075
LeftArm  -10.9694 -5.21744 -27.5893
LeftForeArm  1.91561 -56.4219 -17.0176
LeftHand  -0.25398 0.0180481 5.50724
RightShoulder  6.02491 11.1627 35.1133
RightArm  -10.1317 -1.46909 23.3713
RightForeArm  -29.4848 67.9907 33.0996
RightHand  0.568238 -10.6382 -13.6254
LeftUpLeg  -32.9294 33.6446 -15.3187
LeftLeg  17.1944 1.61061 -0.265801
LeftFoot  7.88087 -3.13425 18.0723
LeftToes  1.06247e-005 4.65855e-005 -8.18504e-006
485
root  -32.2795 38.3197 -18.5721 174.179 -74.4742 -173.991
RightUpLeg  -29.3729 -20.9399 -0.121117
RightLeg  68.5447 0.193382 -0.165256
RightFoot  6.6845 -0.714583 4.78544
RightToes  0.000482159 0.542163 -0.142577
Spine  33.3075 -0.366648 0.516002
Spine1  13.7892 0.563299 -2.35489
HEad  8.59268 5.09181 -3.03327
LeftShoulder1  8.55165 -15.8113 -38.1079
LeftArm  -10.5933 -10.6073 -29.0495
LeftForeArm  -0.614857 -51.5749 -14.2634
LeftHand  -0.25398 0.0180481 5.50724
RightShoulder  5.96646 11.3837 34.1241
RightArm  -11.8163 2.3251 23.9718
RightForeArm  -32.8989 64.8769 28.1805
RightHand  0.486773 -10.4972 -12.2294
LeftUpLeg  -33.9078 35.1578 -16.176
LeftLeg  17.3051 -0.292153 -1.02682
LeftFoot  7.11058 -2.99469 18.0093
LeftToes  1.06247e-005 4.65855e-005 -8.18504e-006
486
root  -32.7806 38.6134 -18.6939 173.756 -74.6063 -171.76
RightUpLeg  -33.594 -21.9759 0.798259
RightLeg  64.0043 -0.880508 -2.54977
RightFoot  4.05204 -0.63889 4.93896
RightToes  0.000482159 0.542163 -0.142577
Spine  36.2528 -0.664635 1.32301
Spine1  13.6352 0.51071 -2.42081
HEad  6.00523 4.83875 -3.86277
LeftShoulder1  8.53645 -16.1323 -37.3342
LeftArm  -10.3416 -15.9985 -29.903
LeftForeArm  -2.69814 -46.5891 -12.0357
LeftHand  -0.25398 0.0180481 5.50724
RightShoulder  5.8461 11.6373 32.6632
RightArm  -12.9744 7.12102 24.7882
RightForeArm  -36.2571 60.2381 22.9217
RightHand  0.380462 -10.4008 -10.0922
LeftUpLeg  -33.9279 33.7905 -15.2532
LeftLeg  16.0656 0.883597 -1.50109
LeftFoot  7.4878 -3.13843 18.4818
LeftToes  1.06247e-005 4.65855e-005 -8.18504e-006
487
root  -33.2536 38.8475 -18.8658 173.466 -74.6808 -169.569
RightUpLeg  -36.3005 -22.3646 2.06509
RightLeg  55.5629 -2.35755 -4.09939
RightFoot  2.46006 -0.621068 5.25954
RightToes  0.000482159 0.542163 -0.142577
Spine  39.0054 -0.758078 1.65438
Spine1  13.4522 0.460911 -2.13949
HEad  3.4835 4.54915 -4.70503
LeftShoulder1  8.69363 -16.5169 -37.2828
LeftArm  -10.049 -21.4004 -29.7472
LeftForeArm  -4.84088 -41.3838 -10.1616
LeftHand  -0.25398 0.0180481 5.50724
RightShoulder  5.6786 11.8382 31.056
RightArm  -13.515 12.6743 25.2581
RightForeArm  -39.0017 54.5275 18.3955
RightHand  0.242725 -9.92865 -7.66464
LeftUpLeg  -34.0817 31.5428 -13.8218
LeftLeg  15.3321 3.11004 -1.5496
LeftFoot  7.49572 -3.04141 17.8983
LeftToes  1.06247e-005 4.65855e-005 -8.18504e-006
488
root  -33.7099 39.0268 -19.1041 173.332 -74.6109 -167.577
RightUpLeg  -37.2434 -21.8784 3.42473
RightLeg  43.8107 -4.08132 -4.47739
RightFoot  2.12288 -0.548922 4.77307
RightToes  0.000482159 0.542163 -0.142577
Spine  41.4325 -0.694092 1.76286
Spine1  13.6769 0.627328 -2.01056
HEad  0.563489 4.19764 -5.10065
LeftShoulder1  8.91253 -17.0469 -37.2269
LeftArm  -9.92222 -26.8186 -29.1952
LeftForeArm  -7.16985 -36.0705 -8.57709
LeftHand  -0.25398 0.0180481 5.50724
RightShoulder  5.50842 11.9851 29.5843
RightArm  -13.7712 18.5722 25.2509
RightForeArm  -41.1924 48.6039 15.0224
RightHand  0.125587 -9.15549 -5.62905
LeftUpLeg  -34.6212 30.2052 -12.668
LeftLeg  15.0811 4.34039 -1.82986
LeftFoot  7.01639 -2.80565 16.966
LeftToes  1.06247e-005 4.65855e-005 -8.18504e-006
